<?xml version="1.0" encoding="utf-8"?>
<!-- Generator: Adobe Illustrator 23.0.5, SVG Export Plug-In . SVG Version: 6.00 Build 0)  -->
<svg version="1.1" xmlns="http://www.w3.org/2000/svg" xmlns:xlink="http://www.w3.org/1999/xlink" x="0px" y="0px"
	 viewBox="0 0 322.64 249.12" style="enable-background:new 0 0 322.64 249.12;" xml:space="preserve">
<style type="text/css">
	.st0{display:none;}
	.st1{display:inline;}
	.st2{fill:#407BFF;}
	.st3{opacity:0.9;fill:#FFFFFF;}
	.st4{fill:#F5F5F5;}
	.st5{fill:#249FFB;}
	.st6{opacity:0.25;fill:#FFFFFF;}
	.st7{fill:#FAFAFA;}
	.st8{fill:#FFFFFF;}
	.st9{fill:#EBEBEB;}
</style>
<g id="Background_Complete">
</g>
<g id="Background_Simple" class="st0">
	<g class="st1">
		<path class="st2" d="M151.79-29.02c48.1,5.38,69.22-36.32,116.88-30.86c42.54,4.87,71.88,35.18,61.95,76.01
			c-8.81,36.24-50.81,47.61-65.74,81.56c-15.83,35.98-28.1,74.79-75.9,87.32C95.13,209.6,49.54,94.12,43.15,27.79
			c-2.45-25.46-6.73-86.33,26.5-94.21C103.11-74.36,122.28-32.32,151.79-29.02z"/>
		<path class="st3" d="M151.79-29.02c48.1,5.38,69.22-36.32,116.88-30.86c42.54,4.87,71.88,35.18,61.95,76.01
			c-8.81,36.24-50.81,47.61-65.74,81.56c-15.83,35.98-28.1,74.79-75.9,87.32C95.13,209.6,49.54,94.12,43.15,27.79
			c-2.45-25.46-6.73-86.33,26.5-94.21C103.11-74.36,122.28-32.32,151.79-29.02z"/>
	</g>
</g>
<g id="Shadow_1_">
	<ellipse id="_x3C_Path_x3E__130_" class="st4" cx="161.32" cy="212.79" rx="161.32" ry="11.32"/>
	
		<rect x="40.18" y="62.96" transform="matrix(0.9974 -0.0718 0.0718 0.9974 -5.0819 3.1088)" class="st5" width="1" height="18.49"/>
	<rect x="41.78" y="90.94" transform="matrix(0.9974 -0.0719 0.0719 0.9974 -6.6754 3.2821)" class="st5" width="1" height="6.96"/>
	<path class="st5" d="M274.11,175.75H59.95c-4.84,0-9.09-3.96-9.44-8.81L39.99,20.82c-0.35-4.84,3.33-8.81,8.17-8.81h214.16
		c4.84,0,9.09,3.96,9.44,8.81l10.52,146.13C282.63,171.79,278.95,175.75,274.11,175.75z"/>
	<path class="st2" d="M274.93,175.75H60.77c-4.84,0-9.09-3.96-9.44-8.81L40.81,20.82c-0.35-4.84,3.33-8.81,8.17-8.81h214.16
		c4.84,0,9.09,3.96,9.44,8.81l10.52,146.13C283.45,171.79,279.77,175.75,274.93,175.75z"/>
	<path class="st6" d="M274.93,175.75H60.77c-4.84,0-9.09-3.96-9.44-8.81L40.81,20.82c-0.35-4.84,3.33-8.81,8.17-8.81h214.16
		c4.84,0,9.09,3.96,9.44,8.81l10.52,146.13C283.45,171.79,279.77,175.75,274.93,175.75z"/>
	<path class="st5" d="M263.45,16.41H49.3c-0.24,0-0.48,0.01-0.72,0.03c-5.47,0.45-4.36,8.78,1.17,8.78h214.52
		c5.53,0,5.44-8.33-0.1-8.78C263.94,16.42,263.7,16.41,263.45,16.41z"/>
	<path class="st7" d="M54.87,20.82c0.08,1.12-0.76,2.02-1.87,2.02c-1.12,0-2.08-0.9-2.16-2.02c-0.08-1.11,0.76-2.02,1.87-2.02
		S54.79,19.7,54.87,20.82z"/>
	<path class="st7" d="M61.74,20.82c0.08,1.12-0.76,2.02-1.87,2.02c-1.12,0-2.08-0.9-2.16-2.02c-0.08-1.11,0.76-2.02,1.87-2.02
		S61.66,19.7,61.74,20.82z"/>
	<path class="st7" d="M68.61,20.82c0.08,1.12-0.76,2.02-1.87,2.02c-1.12,0-2.08-0.9-2.16-2.02c-0.08-1.11,0.76-2.02,1.87-2.02
		C67.56,18.8,68.53,19.7,68.61,20.82z"/>
	<path class="st8" d="M269.25,161.17H64.35c-1.76,0-3.3-1.43-3.42-3.19L52.27,37.8c-0.13-1.76,1.2-3.19,2.96-3.19h204.9
		c1.76,0,3.3,1.43,3.42,3.19l8.65,120.17C272.34,159.74,271.01,161.17,269.25,161.17z"/>
	<polygon class="st8" points="182.93,115.39 179.59,69.07 169.48,62.99 141.68,62.99 145.45,115.39 	"/>
	<path class="st5" d="M180.91,113.85H147.7c-0.23,0-0.41-0.17-0.43-0.4l-3.34-46.45c-0.01-0.12,0.03-0.24,0.11-0.32
		c0.08-0.09,0.2-0.14,0.31-0.14H169c0.08,0,0.15,0.02,0.22,0.06l8.96,5.39c0.12,0.07,0.2,0.2,0.21,0.34l2.96,41.05
		c0.01,0.12-0.03,0.24-0.11,0.32C181.15,113.8,181.03,113.85,180.91,113.85z M148.1,112.99h32.35l-2.91-40.37l-8.66-5.22h-24.06
		L148.1,112.99z"/>
	<g>
		<polygon class="st9" points="177.96,72.37 169,66.98 172.29,74.12 		"/>
		<path class="st5" d="M172.29,74.55c-0.16,0-0.32-0.09-0.39-0.25l-3.29-7.14c-0.08-0.17-0.04-0.37,0.1-0.5
			c0.14-0.13,0.35-0.14,0.51-0.05l8.96,5.39c0.15,0.09,0.23,0.25,0.2,0.42c-0.02,0.17-0.14,0.31-0.3,0.36l-5.67,1.75
			C172.37,74.54,172.33,74.55,172.29,74.55z M169.97,68.07l2.55,5.53l4.39-1.36L169.97,68.07z"/>
	</g>
	<g>
		<path class="st5" d="M158.26,87.9c0.07,1.04-0.7,1.88-1.74,1.88c-1.04,0-1.94-0.84-2.01-1.88c-0.07-1.04,0.7-1.88,1.74-1.88
			S158.18,86.87,158.26,87.9z"/>
		<path class="st5" d="M170.43,87.9c0.07,1.04-0.7,1.88-1.74,1.88s-1.94-0.84-2.01-1.88c-0.07-1.04,0.7-1.88,1.74-1.88
			S170.36,86.87,170.43,87.9z"/>
		<path class="st5" d="M173.87,100.07c-0.22,0-0.41-0.17-0.43-0.4c-0.22-3.02-4.95-5.47-10.55-5.47c-3.71,0-7.04,1.1-8.69,2.88
			c-0.73,0.79-1.07,1.64-1.01,2.53c0.02,0.24-0.16,0.44-0.4,0.46c-0.24,0.01-0.44-0.16-0.46-0.4c-0.08-1.12,0.35-2.22,1.24-3.18
			c1.81-1.94,5.38-3.15,9.32-3.15c6.14,0,11.15,2.75,11.4,6.27c0.02,0.24-0.16,0.44-0.4,0.46
			C173.89,100.07,173.88,100.07,173.87,100.07z"/>
	</g>
	<path class="st5" d="M151.34,84.1c-0.1,0-0.21-0.04-0.29-0.11c-0.17-0.16-0.18-0.43-0.02-0.61l1.88-2.03
		c0.16-0.17,0.43-0.18,0.61-0.02c0.17,0.16,0.18,0.43,0.02,0.61l-1.88,2.03C151.57,84.06,151.46,84.1,151.34,84.1z"/>
	<path class="st5" d="M172.98,84.1c-0.1,0-0.21-0.04-0.29-0.12l-2.17-2.03c-0.17-0.16-0.18-0.43-0.02-0.61
		c0.16-0.17,0.43-0.18,0.61-0.02l2.17,2.03c0.17,0.16,0.18,0.43,0.02,0.61C173.21,84.06,173.1,84.1,172.98,84.1z"/>
	<g>
		<path class="st5" d="M141.67,122.6h2l2.89,3.84l-0.28-3.84h2.02l0.5,6.94h-2.02l-2.87-3.81l0.27,3.81h-2.02L141.67,122.6z"/>
		<path class="st5" d="M149.72,126.08c-0.08-1.13,0.17-2.02,0.76-2.65c0.59-0.63,1.44-0.95,2.57-0.95c1.16,0,2.07,0.31,2.74,0.93
			c0.67,0.62,1.04,1.49,1.13,2.61c0.06,0.81-0.03,1.48-0.27,2c-0.24,0.52-0.6,0.92-1.1,1.21c-0.5,0.29-1.13,0.43-1.9,0.43
			c-0.78,0-1.44-0.12-1.97-0.37c-0.53-0.25-0.98-0.64-1.33-1.18C149.98,127.56,149.78,126.89,149.72,126.08z M151.86,126.09
			c0.05,0.7,0.22,1.2,0.5,1.51c0.28,0.31,0.65,0.46,1.1,0.46c0.46,0,0.81-0.15,1.04-0.45c0.23-0.3,0.32-0.84,0.26-1.61
			c-0.05-0.65-0.21-1.13-0.5-1.43s-0.65-0.45-1.11-0.45c-0.43,0-0.77,0.15-1.01,0.46C151.91,124.87,151.81,125.38,151.86,126.09z"/>
		<path class="st5" d="M161.08,122.6h3.19c0.63,0,1.14,0.09,1.54,0.26c0.4,0.17,0.74,0.42,1.01,0.73c0.28,0.32,0.49,0.69,0.63,1.11
			c0.14,0.42,0.23,0.87,0.27,1.34c0.05,0.74,0.01,1.32-0.13,1.73c-0.14,0.41-0.35,0.75-0.63,1.03c-0.28,0.28-0.59,0.46-0.93,0.55
			c-0.46,0.13-0.88,0.19-1.26,0.19h-3.19L161.08,122.6z M163.34,124.17l0.27,3.79h0.53c0.45,0,0.76-0.05,0.95-0.15
			c0.18-0.1,0.32-0.27,0.41-0.52c0.09-0.25,0.11-0.65,0.07-1.21c-0.05-0.74-0.21-1.24-0.47-1.51c-0.26-0.27-0.67-0.41-1.22-0.41
			H163.34z"/>
		<path class="st5" d="M172.86,128.4h-2.44l-0.26,1.15h-2.19l2.11-6.94h2.34l3.11,6.94h-2.25L172.86,128.4z M172.31,126.9l-0.95-2.5
			l-0.58,2.5H172.31z"/>
		<path class="st5" d="M174.57,122.6h6.52l0.12,1.71h-2.19l0.38,5.23h-2.15l-0.38-5.23h-2.19L174.57,122.6z"/>
		<path class="st5" d="M186.09,128.4h-2.44l-0.26,1.15h-2.19l2.11-6.94h2.34l3.11,6.94h-2.25L186.09,128.4z M185.53,126.9l-0.95-2.5
			l-0.58,2.5H185.53z"/>
	</g>
</g>
<g id="Window_No_Data">
</g>
<g id="Character_1_">
</g>
</svg>
