<svg xmlns="http://www.w3.org/2000/svg" width="18.819" height="16.73" viewBox="0 0 18.819 16.73">
  <g id="Group_1" data-name="Group 1" transform="translate(1)">
    <path id="Path_1" data-name="Path 1" d="M104.165,156.547c.9.094,1.814.236,2.727.263a2.329,2.329,0,0,0,1.282-.331,1.351,1.351,0,0,0,.575-.977,1.269,1.269,0,0,0-.648-.914,18.265,18.265,0,0,0-2.093-.621,9.044,9.044,0,0,1-1.569-.569,1.41,1.41,0,0,1-.211-2.554,3.029,3.029,0,0,1,3.453-.159,7,7,0,0,1,2.312,2.394c.141-.2.272-.383.4-.568a10.623,10.623,0,0,1,3-3.164,3.76,3.76,0,0,1,4.553.267,2.448,2.448,0,0,1,.461,2.647,1.761,1.761,0,0,1-1.727,1.322c-.964.063-1.933.045-2.9.088-.482.022-.962.1-1.125.677a1.106,1.106,0,0,0,.518,1.345,15.577,15.577,0,0,0,2.251.88,3.825,3.825,0,0,0,.843.092c-.015.1,0,.176-.035.215a21.22,21.22,0,0,1-4.853,4.608c-1.213.794-1.7.776-2.85-.091a17.428,17.428,0,0,1-4.134-4.409c-.082-.126-.158-.256-.229-.388C104.151,156.57,104.165,156.524,104.165,156.547Z" transform="translate(-102.643 -145.337)" fill="#17364b"/>
    <path id="Path_2" data-name="Path 2" d="M98.731,163.862c-.367,1.43-.126,2,1.285,2.572.745.3,1.574.395,2.34.657.369.127.933.4.963.657.063.547-.525.7-.965.688a9.493,9.493,0,0,1-2.709-.252C97.576,167.5,97.181,165.419,98.731,163.862Z" transform="translate(-98.787 -157.796)" fill="#e8219c"/>
    <path id="Path_3" data-name="Path 3" d="M163.607,163.636c.062,1.7-.348,2.273-2.073,2.574-.911.159-1.865.057-2.788.165-.446.052-1.145.22-1.242.5-.205.6.418.914.915,1.01a10.917,10.917,0,0,0,3.1.38C164.012,168.007,164.966,165.764,163.607,163.636Z" transform="translate(-146.409 -157.65)" fill="#249ffb"/>
    <path id="Path_4" data-name="Path 4" d="M105.267,138.981a1.546,1.546,0,0,1-1.5-1.542,1.462,1.462,0,0,1,1.514-1.493,1.515,1.515,0,0,1,1.5,1.534A1.47,1.47,0,0,1,105.267,138.981Z" transform="translate(-102.852 -134.773)" fill="#e8219c"/>
    <path id="Path_5" data-name="Path 5" d="M172.842,132.18a1.546,1.546,0,0,1-1.5-1.542,1.462,1.462,0,0,1,1.514-1.493,1.515,1.515,0,0,1,1.5,1.534A1.47,1.47,0,0,1,172.842,132.18Z" transform="translate(-158.775 -129.145)" fill="#249ffb"/>
    <path id="Path_6" data-name="Path 6" d="M135.871,148.62a1.165,1.165,0,0,1,1.12,1.172,1.105,1.105,0,0,1-1.147,1.123,1.123,1.123,0,0,1-1.124-1.154A1.153,1.153,0,0,1,135.871,148.62Z" transform="translate(-128.469 -145.261)" fill="#17364b"/>
  </g>
</svg>
